<?xml version="1.0" encoding="utf-8"?>
<!-- Generator: Adobe Illustrator 19.0.0, SVG Export Plug-In . SVG Version: 6.00 Build 0)  -->
<svg version="1.1" id="Layer_1" xmlns="http://www.w3.org/2000/svg" xmlns:xlink="http://www.w3.org/1999/xlink" x="0px" y="0px"
	 viewBox="-667 364.1 64.9 64.9" style="enable-background:new -667 364.1 64.9 64.9;" xml:space="preserve">
<style type="text/css">
	.st0{fill:#F6F6F6;}
</style>
<g>
	<path class="st0" d="M-642.1,392.8c0.7-0.5,1-1.4,1-2.5c0-0.6-0.1-1.2-0.3-1.6c-0.2-0.4-0.5-0.7-0.9-1c-0.4-0.2-0.8-0.4-1.3-0.5
		c-0.5-0.1-1-0.1-1.6-0.1h-5.7v6.5h6.2C-643.7,393.6-642.9,393.4-642.1,392.8z"/>
	<path class="st0" d="M-644.4,397.8h-6.7v7.7h6.5c0.6,0,1.2-0.1,1.7-0.2c0.5-0.1,1-0.3,1.4-0.6c0.4-0.3,0.7-0.6,1-1.1
		c0.2-0.5,0.4-1.1,0.4-1.8c0-1.4-0.4-2.4-1.2-3.1C-642,398.1-643.1,397.8-644.4,397.8z"/>
	<path class="st0" d="M-602.1,370.8c0-3.8-2.9-6.7-6.7-6.7c-17.2,0-34.4,0-51.6,0c-3.8,0-6.7,3-6.7,6.7c0,17.2,0,34.4,0,51.6
		c0,3.8,2.9,6.7,6.7,6.7c17.2,0,34.4,0,51.6,0c0.3,0,0.7,0,1-0.1c3.5-0.6,5.7-3.2,5.7-6.7c0-8.6,0-17.1,0-25.7
		C-602.1,388-602,379.3-602.1,370.8z M-627.6,384.3h11.3v2.7h-11.3V384.3z M-634.7,405.8c-0.5,1-1.3,1.9-2.2,2.5
		c-0.9,0.7-2,1.1-3.2,1.4c-1.2,0.3-2.4,0.5-3.6,0.5h-13.5v-27.8h13.1c1.3,0,2.5,0.1,3.6,0.4c1.1,0.2,2,0.6,2.8,1.1
		c0.8,0.5,1.4,1.2,1.8,2.1c0.4,0.9,0.6,2,0.6,3.3c0,1.4-0.3,2.6-1,3.5c-0.6,0.9-1.6,1.7-2.8,2.3c1.7,0.5,3,1.4,3.8,2.6
		c0.8,1.2,1.3,2.7,1.3,4.5C-633.9,403.5-634.1,404.7-634.7,405.8z M-612,401.5h-14.5c0,1.6,0.5,3.1,1.4,3.9c0.8,0.8,2,1.2,3.6,1.2
		c1.1,0,2.1-0.3,2.9-0.8c0.8-0.6,1.3-1.2,1.5-1.8h4.9c-0.8,2.4-2,4.2-3.6,5.2c-1.6,1-3.6,1.6-5.8,1.6c-1.6,0-3-0.3-4.3-0.8
		c-1.3-0.5-2.4-1.2-3.3-2.2c-0.9-0.9-1.6-2.1-2-3.4c-0.5-1.3-0.7-2.7-0.7-4.3c0-1.5,0.3-2.9,0.7-4.2c0.5-1.3,1.2-2.4,2.1-3.4
		c0.9-0.9,2-1.7,3.3-2.2c1.3-0.5,2.7-0.8,4.2-0.8c1.7,0,3.2,0.3,4.5,1c1.3,0.7,2.3,1.6,3.1,2.7c0.8,1.1,1.4,2.4,1.8,3.8
		C-612,398.4-611.9,399.9-612,401.5z"/>
	<path class="st0" d="M-621.9,393.7c-0.9,0-1.6,0.1-2.2,0.5c-0.6,0.3-1,0.7-1.4,1.1c-0.4,0.4-0.6,0.9-0.7,1.4
		c-0.1,0.5-0.2,0.9-0.3,1.3h9c-0.1-1.4-0.6-2.5-1.3-3.2C-619.4,394.1-620.6,393.7-621.9,393.7z"/>
</g>
</svg>
